<mxfile host="app.diagrams.net" modified="2021-03-19T17:10:21.220Z" agent="5.0 (Windows NT 10.0; Win64; x64) AppleWebKit/537.36 (KHTML, like Gecko) Chrome/89.0.4389.90 Safari/537.36" etag="rFAs2fkiumI90zZe_D0n" version="14.4.9" type="github">
  <diagram id="169wusdLx2UsNtBI0LI1" name="Page-1">
    <mxGraphModel dx="1185" dy="647" grid="1" gridSize="10" guides="1" tooltips="1" connect="1" arrows="1" fold="1" page="1" pageScale="1" pageWidth="827" pageHeight="1169" math="0" shadow="0">
      <root>
        <mxCell id="0" />
        <mxCell id="1" parent="0" />
        <mxCell id="I1jJI254r9qA3dTOutij-1" value="aRadius" style="rounded=0;whiteSpace=wrap;html=1;" vertex="1" parent="1">
          <mxGeometry x="100" y="160" width="120" height="60" as="geometry" />
        </mxCell>
        <mxCell id="I1jJI254r9qA3dTOutij-2" value="aBall" style="rounded=0;whiteSpace=wrap;html=1;" vertex="1" parent="1">
          <mxGeometry x="100" y="370" width="120" height="60" as="geometry" />
        </mxCell>
        <mxCell id="I1jJI254r9qA3dTOutij-3" value="" style="ellipse;whiteSpace=wrap;html=1;aspect=fixed;" vertex="1" parent="1">
          <mxGeometry x="330" y="310" width="180" height="180" as="geometry" />
        </mxCell>
        <mxCell id="I1jJI254r9qA3dTOutij-4" value="x" style="rounded=0;whiteSpace=wrap;html=1;" vertex="1" parent="1">
          <mxGeometry x="395" y="340" width="50" height="20" as="geometry" />
        </mxCell>
        <mxCell id="I1jJI254r9qA3dTOutij-5" value="y" style="rounded=0;whiteSpace=wrap;html=1;" vertex="1" parent="1">
          <mxGeometry x="395" y="380" width="50" height="20" as="geometry" />
        </mxCell>
        <mxCell id="I1jJI254r9qA3dTOutij-6" style="edgeStyle=orthogonalEdgeStyle;rounded=0;orthogonalLoop=1;jettySize=auto;html=1;exitX=0.5;exitY=1;exitDx=0;exitDy=0;" edge="1" parent="1" source="I1jJI254r9qA3dTOutij-5" target="I1jJI254r9qA3dTOutij-5">
          <mxGeometry relative="1" as="geometry" />
        </mxCell>
        <mxCell id="I1jJI254r9qA3dTOutij-7" value="radius" style="rounded=0;whiteSpace=wrap;html=1;" vertex="1" parent="1">
          <mxGeometry x="385" y="420" width="70" height="30" as="geometry" />
        </mxCell>
        <mxCell id="I1jJI254r9qA3dTOutij-10" value="15" style="ellipse;whiteSpace=wrap;html=1;aspect=fixed;" vertex="1" parent="1">
          <mxGeometry x="370" y="160" width="60" height="60" as="geometry" />
        </mxCell>
        <mxCell id="I1jJI254r9qA3dTOutij-11" value="20" style="ellipse;whiteSpace=wrap;html=1;aspect=fixed;" vertex="1" parent="1">
          <mxGeometry x="610" y="260" width="60" height="60" as="geometry" />
        </mxCell>
        <mxCell id="I1jJI254r9qA3dTOutij-12" value="20" style="ellipse;whiteSpace=wrap;html=1;aspect=fixed;" vertex="1" parent="1">
          <mxGeometry x="610" y="380" width="60" height="60" as="geometry" />
        </mxCell>
        <mxCell id="I1jJI254r9qA3dTOutij-13" value="" style="endArrow=classic;html=1;entryX=0;entryY=0.5;entryDx=0;entryDy=0;" edge="1" parent="1" target="I1jJI254r9qA3dTOutij-3">
          <mxGeometry width="50" height="50" relative="1" as="geometry">
            <mxPoint x="220" y="400" as="sourcePoint" />
            <mxPoint x="270" y="350" as="targetPoint" />
          </mxGeometry>
        </mxCell>
        <mxCell id="I1jJI254r9qA3dTOutij-14" value="" style="endArrow=classic;html=1;entryX=0;entryY=0.5;entryDx=0;entryDy=0;" edge="1" parent="1" target="I1jJI254r9qA3dTOutij-10">
          <mxGeometry width="50" height="50" relative="1" as="geometry">
            <mxPoint x="220" y="189.58" as="sourcePoint" />
            <mxPoint x="330" y="189.58" as="targetPoint" />
          </mxGeometry>
        </mxCell>
        <mxCell id="I1jJI254r9qA3dTOutij-15" value="" style="endArrow=classic;html=1;entryX=0;entryY=0.5;entryDx=0;entryDy=0;" edge="1" parent="1" target="I1jJI254r9qA3dTOutij-11">
          <mxGeometry width="50" height="50" relative="1" as="geometry">
            <mxPoint x="445" y="349.58" as="sourcePoint" />
            <mxPoint x="555" y="349.58" as="targetPoint" />
          </mxGeometry>
        </mxCell>
        <mxCell id="I1jJI254r9qA3dTOutij-16" value="" style="endArrow=classic;html=1;entryX=0;entryY=0.5;entryDx=0;entryDy=0;" edge="1" parent="1" target="I1jJI254r9qA3dTOutij-12">
          <mxGeometry width="50" height="50" relative="1" as="geometry">
            <mxPoint x="445" y="389.58" as="sourcePoint" />
            <mxPoint x="555" y="389.58" as="targetPoint" />
          </mxGeometry>
        </mxCell>
        <mxCell id="I1jJI254r9qA3dTOutij-17" value="" style="endArrow=classic;html=1;" edge="1" parent="1" target="I1jJI254r9qA3dTOutij-1">
          <mxGeometry width="50" height="50" relative="1" as="geometry">
            <mxPoint x="385" y="430" as="sourcePoint" />
            <mxPoint x="495" y="430" as="targetPoint" />
          </mxGeometry>
        </mxCell>
      </root>
    </mxGraphModel>
  </diagram>
</mxfile>
